<svg width="89" height="250" viewBox="0 0 89 250" fill="none" xmlns="http://www.w3.org/2000/svg">
<rect width="89" height="250" rx="35" fill="black"/>
<rect x="76" y="17" width="215" height="15" rx="7.5" transform="rotate(90 76 17)" fill="#2C2C2C"/>
<rect x="30" y="17" width="215" height="15" rx="7.5" transform="rotate(90 30 17)" fill="#2C2C2C"/>
<path d="M50.9053 120.755L50.9053 122.328L40 122.328L40 120.209L48.4438 120.209L47.1507 118.293L48.6307 117.389L50.9053 120.755ZM45.7331 131.321C45.2501 132.381 44.3621 132.957 43.1469 132.957C41.2152 132.957 40 131.602 40 129.078L40 124.981L50.9053 124.981L50.9053 128.673C50.9053 131.165 49.7213 132.521 47.9764 132.521C46.9638 132.521 46.2316 132.1 45.7642 131.321L45.7331 131.321ZM49.0825 128.673L49.0825 127.099L46.3718 127.099L46.3718 128.673C46.3718 129.654 46.7457 130.402 47.7583 130.402C48.7554 130.402 49.0825 129.592 49.0825 128.673ZM41.8227 129.078C41.8227 130.09 42.3213 130.807 43.2872 130.807C44.2998 130.807 44.6893 130.028 44.6893 129.078L44.6893 127.099L41.8227 127.099L41.8227 129.078Z" fill="white"/>
</svg>
