<svg width="89" height="250" viewBox="0 0 89 250" fill="none" xmlns="http://www.w3.org/2000/svg">
<g opacity="0.4">
<rect width="89" height="250" rx="35" fill="black"/>
<rect x="76" y="17" width="215" height="15" rx="7.5" transform="rotate(90 76 17)" fill="#2C2C2C"/>
<rect x="30" y="17" width="215" height="15" rx="7.5" transform="rotate(90 30 17)" fill="#2C2C2C"/>
<path d="M50.9053 117.755L50.9053 119.328L40 119.328L40 117.209L48.4438 117.209L47.1507 115.293L48.6307 114.389L50.9053 117.755ZM41.8072 127.137C41.8072 128.274 42.2745 129.147 42.9756 129.723L41.8227 131.468C40.5764 130.487 39.7975 128.96 39.7975 127.137C39.7975 123.912 42.2589 121.591 45.4526 121.591C48.6463 121.591 51.0922 123.912 51.0922 127.137C51.0922 128.96 50.3288 130.487 49.0669 131.468L47.9141 129.723C48.6152 129.147 49.0825 128.274 49.0825 127.137C49.0825 124.878 47.2598 123.71 45.4526 123.71C43.6299 123.71 41.8072 124.878 41.8072 127.137Z" fill="white"/>
</g>
</svg>
