<svg width="57" height="56" viewBox="0 0 57 56" fill="none" xmlns="http://www.w3.org/2000/svg">
<path d="M56.2271 25.0828C56.2785 25.6385 56.3131 26.1991 56.3305 26.7638L55.9146 26.7766C55.9231 27.0528 55.9273 27.33 55.9273 27.6083C55.9273 27.8865 55.9231 28.1637 55.9146 28.4399L56.3305 28.4527C56.3131 29.0175 56.2785 29.578 56.2271 30.1338L55.8128 30.0954C55.7616 30.6489 55.6934 31.1975 55.6089 31.7409L56.02 31.8049C55.9332 32.3628 55.8293 32.9152 55.709 33.4616L55.3026 33.3721C55.1832 33.9145 55.0472 34.4508 54.8952 34.9805L55.2952 35.0952C55.1398 35.6369 54.968 36.1718 54.7803 36.6994L54.3884 36.5599C54.2026 37.0822 54.001 37.5973 53.7841 38.1045L54.1667 38.2681C53.9454 38.7857 53.7085 39.2952 53.4566 39.7962L53.0849 39.6093C52.836 40.1043 52.5722 40.5907 52.2941 41.0682L52.6535 41.2776C52.3705 41.7634 52.0728 42.24 51.7611 42.7067L51.4151 42.4757C51.1077 42.936 50.7865 43.3866 50.4519 43.827L50.7832 44.0787C50.4434 44.5261 50.09 44.963 49.7238 45.3889L49.4083 45.1177C49.0476 45.5371 48.6742 45.9457 48.2886 46.343L48.5872 46.6327C48.1962 47.0356 47.7929 47.4269 47.3779 47.8061L47.0972 47.4989C46.689 47.8719 46.2692 48.233 45.8386 48.5816L46.1003 48.905C45.6643 49.2579 45.2173 49.5982 44.7598 49.9254L44.5178 49.5869C44.0683 49.9083 43.6087 50.2168 43.1393 50.5118L43.3607 50.8641C42.886 51.1624 42.4016 51.4472 41.908 51.7179L41.708 51.3531C41.2237 51.6187 40.7304 51.8704 40.2288 52.1078L40.4067 52.4839C39.9005 52.7235 39.3859 52.9486 38.8634 53.1588L38.7081 52.7728C38.1964 52.9787 37.677 53.17 37.1505 53.3463L37.2825 53.7408C36.7518 53.9185 36.214 54.081 35.6695 54.228L35.5611 53.8263C35.0288 53.97 34.4902 54.0985 33.9456 54.2114L34.03 54.6188C33.4825 54.7322 32.9292 54.8301 32.3705 54.912L32.3102 54.5003C31.7657 54.58 31.2161 54.6443 30.6617 54.6926L30.6978 55.107C30.1417 55.1555 29.581 55.1881 29.0162 55.2043L29.0042 54.7885C28.7277 54.7964 28.4502 54.8005 28.1717 54.8005C27.8932 54.8005 27.6157 54.7964 27.3392 54.7885L27.3272 55.2043C26.7623 55.1881 26.2016 55.1555 25.6456 55.107L25.6817 54.6926C25.1273 54.6443 24.5776 54.58 24.0332 54.5003L23.9729 54.912C23.4142 54.8301 22.8608 54.7322 22.3134 54.6188L22.3978 54.2114C21.8532 54.0985 21.3145 53.97 20.7823 53.8263L20.6738 54.228C20.1294 54.081 19.5915 53.9185 19.0608 53.7408L19.1929 53.3463C18.6664 53.17 18.147 52.9787 17.6353 52.7728L17.48 53.1588C16.9575 52.9486 16.4428 52.7234 15.9366 52.4839L16.1146 52.1078C15.6129 51.8704 15.1197 51.6187 14.6354 51.3531L14.4353 51.7179C13.9418 51.4472 13.4573 51.1624 12.9826 50.8641L13.2041 50.5118C12.7347 50.2168 12.275 49.9083 11.8256 49.5869L11.5836 49.9254C11.1261 49.5982 10.6791 49.2579 10.243 48.905L10.5048 48.5816C10.0741 48.233 9.65438 47.8719 9.24613 47.4989L8.96549 47.8061C8.55049 47.4269 8.1472 47.0356 7.75618 46.6327L8.05474 46.343C7.66918 45.9457 7.29577 45.5371 6.93508 45.1177L6.61962 45.3889C6.25336 44.963 5.90002 44.5261 5.56017 44.0787L5.89147 43.827C5.5569 43.3866 5.23563 42.936 4.92823 42.4757L4.58223 42.7067C4.27053 42.24 3.97287 41.7634 3.68983 41.2776L4.04932 41.0682C3.77116 40.5907 3.50735 40.1043 3.25847 39.6093L2.88677 39.7962C2.63484 39.2952 2.39795 38.7857 2.17669 38.2681L2.55926 38.1045C2.34241 37.5973 2.14081 37.0822 1.95502 36.5599L1.56303 36.6994C1.37536 36.1718 1.20356 35.6369 1.0482 35.0952L1.44813 34.9805C1.29618 34.4508 1.1602 33.9145 1.04074 33.3721L0.634427 33.4616C0.51406 32.9152 0.410197 32.3628 0.323376 31.8049L0.734482 31.7409C0.649931 31.1975 0.58179 30.6489 0.530574 30.0954L0.11629 30.1338C0.0648609 29.578 0.0302389 29.0175 0.0129258 28.4527L0.428784 28.4399C0.420318 28.1637 0.416054 27.8865 0.416054 27.6083C0.416054 27.33 0.420318 27.0528 0.428785 26.7766L0.0129259 26.7638C0.0302392 26.1991 0.0648613 25.6385 0.11629 25.0828L0.530574 25.1211C0.581791 24.5676 0.649932 24.019 0.734483 23.4756L0.323376 23.4117C0.410198 22.8537 0.51406 22.3013 0.634427 21.7549L1.04074 21.8444C1.1602 21.3021 1.29618 20.7658 1.44813 20.236L1.0482 20.1213C1.20356 19.5797 1.37536 19.0448 1.56303 18.5172L1.95502 18.6566C2.14081 18.1343 2.34241 17.6192 2.55926 17.112L2.17669 16.9484C2.39795 16.4308 2.63484 15.9213 2.88677 15.4203L3.25847 15.6072C3.50735 15.1122 3.77116 14.6258 4.04932 14.1484L3.68983 13.9389C3.97287 13.4531 4.27053 12.9765 4.58223 12.5098L4.92823 12.7408C5.23563 12.2805 5.5569 11.8299 5.89147 11.3895L5.56017 11.1378C5.90002 10.6904 6.25337 10.2535 6.61962 9.82759L6.93508 10.0989C7.29577 9.67941 7.66919 9.27078 8.05474 8.87354L7.75619 8.58377C8.1472 8.18091 8.5505 7.78961 8.9655 7.41045L9.24613 7.71761C9.65438 7.34461 10.0741 6.98353 10.5048 6.63493L10.243 6.31154C10.6791 5.95861 11.1261 5.61829 11.5836 5.29116L11.8256 5.62959C12.275 5.30819 12.7347 4.99971 13.2041 4.70469L12.9826 4.35245C13.4573 4.05407 13.9418 3.76927 14.4354 3.49861L14.6354 3.86342C15.1197 3.59785 15.6129 3.34609 16.1146 3.10869L15.9366 2.73262C16.4428 2.49307 16.9575 2.26791 17.48 2.05771L17.6353 2.44369C18.147 2.23782 18.6664 2.04649 19.1929 1.87024L19.0608 1.4757C19.5916 1.29805 20.1294 1.13549 20.6738 0.988537L20.7823 1.39022C21.3145 1.24655 21.8532 1.11803 22.3978 1.00515L22.3134 0.597757C22.8608 0.484279 23.4142 0.386382 23.9729 0.304564L24.0332 0.716227C24.5776 0.636492 25.1273 0.572247 25.6817 0.523967L25.6456 0.109481C26.2016 0.0610571 26.7623 0.0284648 27.3272 0.0121675L27.3392 0.428048C27.6157 0.420071 27.8932 0.416054 28.1717 0.416054C28.4502 0.416054 28.7277 0.420071 29.0042 0.428049L29.0162 0.0121678C29.5811 0.0284653 30.1417 0.0610578 30.6978 0.109482L30.6617 0.523967C31.2161 0.572248 31.7657 0.636494 32.3102 0.716228L32.3705 0.304565C32.9292 0.386384 33.4825 0.48428 34.03 0.597759L33.9456 1.00515C34.4902 1.11803 35.0289 1.24656 35.5611 1.39022L35.6695 0.988539C36.214 1.13549 36.7518 1.29805 37.2825 1.47571L37.1505 1.87024C37.677 2.04649 38.1964 2.23782 38.7081 2.4437L38.8634 2.05771C39.3859 2.26792 39.9006 2.49307 40.4068 2.73262L40.2288 3.10869C40.7304 3.3461 41.2237 3.59785 41.708 3.86342L41.908 3.49861C42.4016 3.76928 42.886 4.05407 43.3607 4.35245L43.1393 4.7047C43.6087 4.99971 44.0683 5.30819 44.5178 5.62959L44.7598 5.29116C45.2173 5.6183 45.6643 5.95861 46.1003 6.31154L45.8386 6.63493C46.2693 6.98353 46.689 7.34461 47.0973 7.71761L47.3779 7.41046C47.7929 7.78962 48.1962 8.18091 48.5872 8.58377L48.2886 8.87354C48.6742 9.27078 49.0476 9.67941 49.4083 10.0989L49.7238 9.8276C50.09 10.2535 50.4434 10.6904 50.7832 11.1378L50.4519 11.3895C50.7865 11.8299 51.1077 12.2805 51.4151 12.7408L51.7611 12.5098C52.0728 12.9765 52.3705 13.4531 52.6535 13.9389L52.2941 14.1484C52.5722 14.6258 52.836 15.1122 53.0849 15.6072L53.4566 15.4203C53.7085 15.9213 53.9454 16.4308 54.1667 16.9484L53.7841 17.112C54.001 17.6192 54.2026 18.1343 54.3884 18.6566L54.7803 18.5172C54.968 19.0448 55.1398 19.5797 55.2952 20.1213L54.8952 20.236C55.0472 20.7658 55.1832 21.3021 55.3026 21.8444L55.709 21.7549C55.8293 22.3013 55.9332 22.8537 56.02 23.4117L55.6089 23.4756C55.6934 24.019 55.7616 24.5676 55.8128 25.1211L56.2271 25.0828Z" stroke="#1877F2" stroke-width="0.832108" stroke-dasharray="1.66 1.66"/>
<circle cx="28" cy="27" r="14" fill="#1877F2"/>
<path d="M28 23.125V31.875" stroke="white" stroke-width="2" stroke-linecap="round" stroke-linejoin="round"/>
<path d="M32.6668 27.5L28.0002 31.875L23.3335 27.5" stroke="white" stroke-width="2" stroke-linecap="round" stroke-linejoin="round"/>
</svg>
