<svg width="49" height="49" viewBox="0 0 49 49" fill="none" xmlns="http://www.w3.org/2000/svg">
<path d="M23.5039 11.0085C23.8788 11.3836 24.0895 11.8922 24.0895 12.4225C24.0895 12.9529 23.8788 13.4615 23.5039 13.8365L14.9179 22.4225H38.0899C38.6203 22.4225 39.129 22.6333 39.5041 23.0083C39.8792 23.3834 40.0899 23.8921 40.0899 24.4225C40.0899 24.953 39.8792 25.4617 39.5041 25.8368C39.129 26.2118 38.6203 26.4225 38.0899 26.4225H14.9179L23.5039 35.0085C23.8682 35.3857 24.0698 35.891 24.0653 36.4153C24.0607 36.9397 23.8504 37.4414 23.4795 37.8122C23.1087 38.183 22.6071 38.3933 22.0827 38.3979C21.5583 38.4025 21.0531 38.2009 20.6759 37.8365L8.67591 25.8365C8.30096 25.4615 8.09033 24.9529 8.09033 24.4225C8.09033 23.8922 8.30096 23.3836 8.67591 23.0085L20.6759 11.0085C21.051 10.6336 21.5596 10.423 22.0899 10.423C22.6202 10.423 23.1288 10.6336 23.5039 11.0085Z" fill="white"/>
</svg>
