<svg width="27" height="27" viewBox="0 0 27 27" fill="none" xmlns="http://www.w3.org/2000/svg">
<g id="Frame">
<path id="Vector" d="M5.2448 5.24451C3.79658 5.24451 2.62256 6.41852 2.62256 7.86675V9.17787H23.6005V7.86675C23.6005 6.41852 22.4265 5.24451 20.9783 5.24451H5.2448Z" fill="white"/>
<path id="Vector_2" fill-rule="evenodd" clip-rule="evenodd" d="M23.6005 11.8001H2.62256V18.3557C2.62256 19.804 3.79658 20.978 5.2448 20.978H20.9783C22.4265 20.978 23.6005 19.804 23.6005 18.3557V11.8001ZM5.2448 17.0446C5.2448 16.3205 5.83182 15.7335 6.55592 15.7335H7.86704C8.59115 15.7335 9.17817 16.3205 9.17817 17.0446C9.17817 17.7687 8.59115 18.3557 7.86704 18.3557H6.55592C5.83182 18.3557 5.2448 17.7687 5.2448 17.0446ZM11.8004 15.7335C11.0763 15.7335 10.4893 16.3205 10.4893 17.0446C10.4893 17.7687 11.0763 18.3557 11.8004 18.3557H13.1115C13.8357 18.3557 14.4227 17.7687 14.4227 17.0446C14.4227 16.3205 13.8357 15.7335 13.1115 15.7335H11.8004Z" fill="white"/>
</g>
</svg>
