<svg width="57" height="57" viewBox="0 0 57 57" fill="none" xmlns="http://www.w3.org/2000/svg">
<path d="M55.9273 28.557C55.9273 43.5669 43.5087 55.7492 28.1717 55.7492C12.8347 55.7492 0.416054 43.5669 0.416054 28.557C0.416054 13.547 12.8347 1.36478 28.1717 1.36478C43.5087 1.36478 55.9273 13.547 55.9273 28.557Z" stroke="#1877F2" stroke-width="0.832108"/>
<circle cx="28.2918" cy="28.7163" r="13.3137" fill="#1877F2"/>
<g clip-path="url(#clip0_409_3)">
<path d="M32.4775 31.8525L28.5 35.83L24.5225 31.8525C23.7358 31.0658 23.2001 30.0635 22.9831 28.9724C22.766 27.8812 22.8774 26.7502 23.3032 25.7224C23.7289 24.6946 24.4499 23.8161 25.3749 23.198C26.3 22.5799 27.3875 22.25 28.5 22.25C29.6125 22.25 30.7001 22.5799 31.6251 23.198C32.5501 23.8161 33.2711 24.6946 33.6968 25.7224C34.1226 26.7502 34.234 27.8812 34.0169 28.9724C33.7999 30.0635 33.2642 31.0658 32.4775 31.8525ZM28.5 29.125C28.8315 29.125 29.1495 28.9933 29.3839 28.7588C29.6183 28.5244 29.75 28.2065 29.75 27.875C29.75 27.5434 29.6183 27.2255 29.3839 26.9911C29.1495 26.7566 28.8315 26.625 28.5 26.625C28.1685 26.625 27.8505 26.7566 27.6161 26.9911C27.3817 27.2255 27.25 27.5434 27.25 27.875C27.25 28.2065 27.3817 28.5244 27.6161 28.7588C27.8505 28.9933 28.1685 29.125 28.5 29.125Z" fill="white"/>
</g>
<defs>
<clipPath id="clip0_409_3">
<rect width="15" height="15" fill="white" transform="translate(21 21)"/>
</clipPath>
</defs>
</svg>
