<svg width="57" height="57" viewBox="0 0 57 57" fill="none" xmlns="http://www.w3.org/2000/svg">
<path d="M56.2271 25.8892C56.2785 26.4449 56.3131 27.0055 56.3305 27.5702L55.9146 27.583C55.9231 27.8592 55.9273 28.1364 55.9273 28.4147C55.9273 28.6929 55.9231 28.9701 55.9146 29.2463L56.3305 29.2591C56.3131 29.8239 56.2785 30.3844 56.2271 30.9402L55.8128 30.9018C55.7616 31.4553 55.6934 32.0039 55.6089 32.5473L56.02 32.6113C55.9332 33.1692 55.8293 33.7216 55.709 34.268L55.3026 34.1785C55.1832 34.7209 55.0472 35.2572 54.8952 35.7869L55.2952 35.9016C55.1398 36.4433 54.968 36.9782 54.7803 37.5058L54.3884 37.3663C54.2026 37.8886 54.001 38.4037 53.7841 38.9109L54.1667 39.0745C53.9454 39.5921 53.7085 40.1016 53.4566 40.6026L53.0849 40.4157C52.836 40.9107 52.5722 41.3971 52.2941 41.8746L52.6535 42.084C52.3705 42.5698 52.0728 43.0464 51.7611 43.5131L51.4151 43.2821C51.1077 43.7424 50.7865 44.193 50.4519 44.6334L50.7832 44.8851C50.4434 45.3325 50.09 45.7694 49.7238 46.1953L49.4083 45.9241C49.0476 46.3435 48.6742 46.7521 48.2886 47.1494L48.5872 47.4391C48.1962 47.842 47.7929 48.2333 47.3779 48.6125L47.0972 48.3053C46.689 48.6783 46.2692 49.0394 45.8386 49.388L46.1003 49.7114C45.6643 50.0643 45.2173 50.4046 44.7598 50.7318L44.5178 50.3933C44.0683 50.7147 43.6087 51.0232 43.1393 51.3182L43.3607 51.6705C42.886 51.9688 42.4016 52.2536 41.908 52.5243L41.708 52.1595C41.2237 52.4251 40.7304 52.6768 40.2288 52.9142L40.4067 53.2903C39.9005 53.5299 39.3859 53.755 38.8634 53.9652L38.7081 53.5792C38.1964 53.7851 37.677 53.9764 37.1505 54.1527L37.2825 54.5472C36.7518 54.7249 36.214 54.8874 35.6695 55.0344L35.5611 54.6327C35.0288 54.7764 34.4902 54.9049 33.9456 55.0178L34.03 55.4252C33.4825 55.5386 32.9292 55.6365 32.3705 55.7183L32.3102 55.3067C31.7657 55.3864 31.2161 55.4507 30.6617 55.4989L30.6978 55.9134C30.1417 55.9619 29.581 55.9944 29.0162 56.0107L29.0042 55.5949C28.7277 55.6028 28.4502 55.6069 28.1717 55.6069C27.8932 55.6069 27.6157 55.6028 27.3392 55.5949L27.3272 56.0107C26.7623 55.9944 26.2016 55.9619 25.6456 55.9134L25.6817 55.4989C25.1273 55.4507 24.5776 55.3864 24.0332 55.3067L23.9729 55.7183C23.4142 55.6365 22.8608 55.5386 22.3134 55.4252L22.3978 55.0178C21.8532 54.9049 21.3145 54.7764 20.7823 54.6327L20.6738 55.0344C20.1294 54.8874 19.5915 54.7249 19.0608 54.5472L19.1929 54.1527C18.6664 53.9764 18.147 53.7851 17.6353 53.5792L17.48 53.9652C16.9575 53.755 16.4428 53.5298 15.9366 53.2903L16.1146 52.9142C15.6129 52.6768 15.1197 52.4251 14.6354 52.1595L14.4353 52.5243C13.9418 52.2536 13.4573 51.9688 12.9826 51.6705L13.2041 51.3182C12.7347 51.0232 12.275 50.7147 11.8256 50.3933L11.5836 50.7318C11.1261 50.4046 10.6791 50.0643 10.243 49.7114L10.5048 49.388C10.0741 49.0394 9.65438 48.6783 9.24613 48.3053L8.96549 48.6125C8.55049 48.2333 8.1472 47.842 7.75618 47.4391L8.05474 47.1494C7.66918 46.7521 7.29577 46.3435 6.93508 45.924L6.61962 46.1953C6.25336 45.7694 5.90002 45.3325 5.56017 44.8851L5.89147 44.6334C5.5569 44.193 5.23563 43.7424 4.92823 43.2821L4.58223 43.5131C4.27053 43.0464 3.97287 42.5698 3.68983 42.084L4.04932 41.8746C3.77116 41.3971 3.50735 40.9107 3.25847 40.4157L2.88677 40.6026C2.63484 40.1016 2.39795 39.5921 2.17669 39.0745L2.55926 38.9109C2.34241 38.4037 2.14081 37.8886 1.95502 37.3663L1.56303 37.5058C1.37536 36.9782 1.20356 36.4433 1.0482 35.9016L1.44813 35.7869C1.29618 35.2572 1.1602 34.7209 1.04074 34.1785L0.634427 34.268C0.51406 33.7216 0.410197 33.1692 0.323376 32.6113L0.734482 32.5473C0.649931 32.0039 0.58179 31.4553 0.530574 30.9018L0.11629 30.9402C0.0648609 30.3844 0.0302389 29.8239 0.0129258 29.2591L0.428784 29.2463C0.420318 28.9701 0.416054 28.6929 0.416054 28.4147C0.416054 28.1364 0.420318 27.8592 0.428785 27.583L0.0129259 27.5702C0.0302392 27.0054 0.0648613 26.4449 0.11629 25.8892L0.530574 25.9275C0.581791 25.374 0.649932 24.8254 0.734483 24.282L0.323376 24.2181C0.410198 23.6601 0.51406 23.1077 0.634427 22.5613L1.04074 22.6508C1.1602 22.1085 1.29618 21.5722 1.44813 21.0424L1.0482 20.9277C1.20356 20.3861 1.37536 19.8512 1.56303 19.3236L1.95502 19.463C2.14081 18.9407 2.34241 18.4256 2.55926 17.9184L2.17669 17.7548C2.39795 17.2372 2.63484 16.7277 2.88677 16.2267L3.25847 16.4136C3.50735 15.9186 3.77116 15.4322 4.04932 14.9547L3.68983 14.7453C3.97287 14.2595 4.27053 13.7829 4.58223 13.3162L4.92823 13.5472C5.23563 13.0869 5.5569 12.6363 5.89147 12.1959L5.56017 11.9442C5.90002 11.4968 6.25337 11.0599 6.61962 10.634L6.93508 10.9053C7.29577 10.4858 7.66919 10.0772 8.05474 9.67994L7.75619 9.39017C8.1472 8.98731 8.5505 8.59601 8.9655 8.21685L9.24613 8.524C9.65438 8.15101 10.0741 7.78993 10.5048 7.44133L10.243 7.11794C10.6791 6.76501 11.1261 6.42469 11.5836 6.09755L11.8256 6.43598C12.275 6.11459 12.7347 5.80611 13.2041 5.51109L12.9826 5.15884C13.4573 4.86047 13.9418 4.57567 14.4354 4.30501L14.6354 4.66981C15.1197 4.40425 15.6129 4.15249 16.1146 3.91509L15.9366 3.53902C16.4428 3.29946 16.9575 3.07431 17.48 2.8641L17.6353 3.25009C18.147 3.04422 18.6664 2.85289 19.1929 2.67664L19.0608 2.2821C19.5916 2.10445 20.1294 1.94188 20.6738 1.79493L20.7823 2.19661C21.3145 2.05295 21.8532 1.92443 22.3978 1.81155L22.3134 1.40415C22.8608 1.29068 23.4142 1.19278 23.9729 1.11096L24.0332 1.52262C24.5776 1.44289 25.1273 1.37864 25.6817 1.33036L25.6456 0.915878C26.2016 0.867454 26.7623 0.834861 27.3272 0.818564L27.3392 1.23444C27.6157 1.22647 27.8932 1.22245 28.1717 1.22245C28.4502 1.22245 28.7277 1.22647 29.0042 1.23445L29.0162 0.818564C29.5811 0.834862 30.1417 0.867454 30.6978 0.915879L30.6617 1.33036C31.2161 1.37864 31.7657 1.44289 32.3102 1.52262L32.3705 1.11096C32.9292 1.19278 33.4825 1.29068 34.03 1.40416L33.9456 1.81155C34.4902 1.92443 35.0289 2.05295 35.5611 2.19662L35.6695 1.79494C36.214 1.94189 36.7518 2.10445 37.2825 2.2821L37.1505 2.67664C37.677 2.85289 38.1964 3.04422 38.7081 3.25009L38.8634 2.8641C39.3859 3.07431 39.9006 3.29947 40.4068 3.53902L40.2288 3.91509C40.7304 4.15249 41.2237 4.40425 41.708 4.66982L41.908 4.30501C42.4016 4.57567 42.886 4.86047 43.3607 5.15885L43.1393 5.51109C43.6087 5.80611 44.0683 6.11459 44.5178 6.43599L44.7598 6.09756C45.2173 6.42469 45.6643 6.76501 46.1003 7.11794L45.8386 7.44133C46.2693 7.78993 46.689 8.15101 47.0973 8.52401L47.3779 8.21685C47.7929 8.59601 48.1962 8.98731 48.5872 9.39017L48.2886 9.67994C48.6742 10.0772 49.0476 10.4858 49.4083 10.9053L49.7238 10.634C50.09 11.0599 50.4434 11.4968 50.7832 11.9442L50.4519 12.1959C50.7865 12.6363 51.1077 13.0869 51.4151 13.5472L51.7611 13.3162C52.0728 13.7829 52.3705 14.2595 52.6535 14.7453L52.2941 14.9548C52.5722 15.4322 52.836 15.9186 53.0849 16.4136L53.4566 16.2267C53.7085 16.7277 53.9454 17.2372 54.1667 17.7548L53.7841 17.9184C54.001 18.4256 54.2026 18.9407 54.3884 19.463L54.7803 19.3236C54.968 19.8512 55.1398 20.3861 55.2952 20.9277L54.8952 21.0424C55.0472 21.5722 55.1832 22.1085 55.3026 22.6508L55.709 22.5613C55.8293 23.1077 55.9332 23.6601 56.02 24.2181L55.6089 24.282C55.6934 24.8254 55.7616 25.374 55.8128 25.9275L56.2271 25.8892Z" stroke="#1877F2" stroke-width="0.832108" stroke-dasharray="1.66 1.66"/>
<circle cx="28.2918" cy="28.574" r="13.3137" fill="black"/>
<path d="M28 24.125V32.875" stroke="white" stroke-width="2" stroke-linecap="round" stroke-linejoin="round"/>
<path d="M32.6668 28.5L28.0002 32.875L23.3335 28.5" stroke="white" stroke-width="2" stroke-linecap="round" stroke-linejoin="round"/>
</svg>
