<svg width="736" height="736" viewBox="0 0 736 736" fill="none" xmlns="http://www.w3.org/2000/svg">
<path d="M585.733 150.267C466.133 30.6666 269.866 30.6666 150.266 150.267C30.6664 269.867 30.6664 466.133 150.266 585.733C269.866 705.333 463.066 705.333 582.666 585.733C702.266 466.133 705.333 269.867 585.733 150.267ZM475.333 475.333C463.477 487.189 444.255 487.189 432.4 475.333L368 410.933L303.6 475.333C291.744 487.189 272.522 487.189 260.666 475.333V475.333C248.811 463.478 248.811 444.256 260.666 432.4L325.066 368L260.666 303.6C248.811 291.744 248.811 272.522 260.666 260.667V260.667C272.522 248.811 291.744 248.811 303.6 260.667L368 325.067L432.4 260.667C444.255 248.811 463.477 248.811 475.333 260.667V260.667C487.189 272.522 487.189 291.744 475.333 303.6L410.933 368L475.333 432.4C487.189 444.256 487.189 463.478 475.333 475.333V475.333Z" fill="#FF4444"/>
</svg>
