<svg width="84" height="84" viewBox="0 0 84 84" fill="none" xmlns="http://www.w3.org/2000/svg">
<g id="Frame">
<path id="Vector" d="M42 5.25C21.7055 5.25 5.25 21.7055 5.25 42C5.25 62.2945 21.7055 78.75 42 78.75C62.2945 78.75 78.75 62.2945 78.75 42C78.75 21.7055 62.2945 5.25 42 5.25ZM39.375 24.2812C39.375 23.9203 39.6703 23.625 40.0312 23.625H43.9688C44.3297 23.625 44.625 23.9203 44.625 24.2812V46.5938C44.625 46.9547 44.3297 47.25 43.9688 47.25H40.0312C39.6703 47.25 39.375 46.9547 39.375 46.5938V24.2812ZM42 60.375C40.9696 60.354 39.9886 59.9299 39.2673 59.1937C38.546 58.4576 38.1421 57.4681 38.1421 56.4375C38.1421 55.4069 38.546 54.4174 39.2673 53.6813C39.9886 52.9451 40.9696 52.521 42 52.5C43.0304 52.521 44.0115 52.9451 44.7327 53.6813C45.454 54.4174 45.8579 55.4069 45.8579 56.4375C45.8579 57.4681 45.454 58.4576 44.7327 59.1937C44.0115 59.9299 43.0304 60.354 42 60.375Z" fill="white"/>
</g>
</svg>
