<svg width="22" height="23" viewBox="0 0 22 23" fill="none" xmlns="http://www.w3.org/2000/svg">
<path d="M16.8284 16.0051L11.0084 21.825L5.18849 16.0051C4.03743 14.854 3.25355 13.3874 2.93598 11.7909C2.61841 10.1943 2.7814 8.53939 3.40436 7.03545C4.02732 5.53151 5.08226 4.24608 6.43577 3.34169C7.78929 2.4373 9.38058 1.95459 11.0084 1.95459C12.6363 1.95459 14.2276 2.4373 15.5811 3.34169C16.9346 4.24608 17.9896 5.53151 18.6125 7.03545C19.2355 8.53939 19.3985 10.1943 19.0809 11.7909C18.7633 13.3874 17.9795 14.854 16.8284 16.0051ZM11.0084 12.0141C11.4935 12.0141 11.9587 11.8214 12.3018 11.4784C12.6448 11.1354 12.8375 10.6702 12.8375 10.1851C12.8375 9.70003 12.6448 9.23482 12.3018 8.89181C11.9587 8.5488 11.4935 8.3561 11.0084 8.3561C10.5234 8.3561 10.0581 8.5488 9.71512 8.89181C9.37212 9.23482 9.17942 9.70003 9.17942 10.1851C9.17942 10.6702 9.37212 11.1354 9.71512 11.4784C10.0581 11.8214 10.5234 12.0141 11.0084 12.0141Z" fill="black"/>
</svg>
