<svg width="36" height="36" viewBox="0 0 36 36" fill="none" xmlns="http://www.w3.org/2000/svg">
<rect width="36" height="36" rx="18" fill="#2E2E2E"/>
<path d="M13.96 17.04C14.5725 17.04 15.0625 17.53 15.0625 18.125C15.0625 18.7375 14.5725 19.2275 13.96 19.2275C13.365 19.2275 12.875 18.7375 12.875 18.125C12.875 17.53 13.365 17.04 13.96 17.04Z" fill="white"/>
<path d="M17.8907 17.04C18.5032 17.04 18.9932 17.53 18.9932 18.125C18.9932 18.7375 18.5032 19.2275 17.8907 19.2275C17.2957 19.2275 16.8057 18.7375 16.8057 18.125C16.8057 17.53 17.2957 17.04 17.8907 17.04Z" fill="white"/>
<path d="M21.8213 17.04C22.4338 17.04 22.9238 17.53 22.9238 18.125C22.9238 18.7375 22.4338 19.2275 21.8213 19.2275C21.2263 19.2275 20.7363 18.7375 20.7363 18.125C20.7363 17.53 21.2263 17.04 21.8213 17.04Z" fill="white"/>
</svg>
