<svg width="70" height="70" viewBox="0 0 70 70" fill="none" xmlns="http://www.w3.org/2000/svg">
<g id="Layer_1">
<path id="Vector" d="M24.5 15.75C23.45 15.75 22.75 16.8 22.75 17.5V26.25H19.25V17.5C19.25 16.45 18.55 15.75 17.5 15.75C16.45 15.75 15.75 16.8 15.75 17.5V26.25H12.25V17.5C12.25 16.45 11.55 15.75 10.5 15.75C9.45 15.75 8.75 16.8 8.75 17.5V29.05C8.75 32.2 11.2 34.65 14 35V59.5C14 61.6 15.4 63 17.5 63C19.6 63 21 61.6 21 59.5V35C23.8 34.65 26.25 32.2 26.25 29.05V17.5C26.25 16.8 25.55 15.75 24.5 15.75ZM31.5 17.5V38.5H35V59.5C35 61.6 36.4 63 38.5 63C40.6 63 42 61.6 42 59.5V7C36.05 7 31.5 11.55 31.5 17.5ZM56 14C51.1 14 47.25 19.25 47.25 25.55C46.9 29.75 49 33.6 52.5 36.05V59.5C52.5 61.6 53.9 63 56 63C58.1 63 59.5 61.6 59.5 59.5V36.05C63 33.6 65.1 29.75 64.75 25.55C64.75 19.25 60.9 14 56 14Z" fill="white"/>
</g>
</svg>
