<svg width="48" height="48" viewBox="0 0 48 48" fill="none" xmlns="http://www.w3.org/2000/svg">
<path d="M24.586 10.5861C24.9611 10.2111 25.4697 10.0005 26 10.0005C26.5303 10.0005 27.0389 10.2111 27.414 10.5861L39.414 22.5861C39.7889 22.9611 39.9996 23.4697 39.9996 24.0001C39.9996 24.5304 39.7889 25.039 39.414 25.4141L27.414 37.4141C27.0368 37.7784 26.5316 37.98 26.0072 37.9754C25.4828 37.9709 24.9812 37.7605 24.6104 37.3897C24.2395 37.0189 24.0292 36.5173 24.0247 35.9929C24.0201 35.4685 24.2217 34.9633 24.586 34.5861L33.172 26.0001H10C9.46957 26.0001 8.96086 25.7893 8.58579 25.4143C8.21071 25.0392 8 24.5305 8 24.0001C8 23.4696 8.21071 22.9609 8.58579 22.5858C8.96086 22.2108 9.46957 22.0001 10 22.0001H33.172L24.586 13.4141C24.2111 13.039 24.0004 12.5304 24.0004 12.0001C24.0004 11.4697 24.2111 10.9611 24.586 10.5861Z" fill="black"/>
</svg>
