<svg width="120" height="90" viewBox="0 0 120 90" fill="none" xmlns="http://www.w3.org/2000/svg">
<g id="Frame" clip-path="url(#clip0_429_164)">
<path id="Vector" d="M23.9999 16.875C28.9686 16.875 32.9999 13.0957 32.9999 8.4375C32.9999 3.7793 28.9686 0 23.9999 0C19.0311 0 14.9999 3.7793 14.9999 8.4375C14.9999 13.0957 19.0311 16.875 23.9999 16.875ZM95.9999 16.875C100.969 16.875 105 13.0957 105 8.4375C105 3.7793 100.969 0 95.9999 0C91.0311 0 86.9999 3.7793 86.9999 8.4375C86.9999 13.0957 91.0311 16.875 95.9999 16.875ZM119.569 82.2832L111.319 62.9473L103.612 71.1035L103.237 74.3027L108.431 86.4668C109.369 88.6641 111.619 90 114 90C114.75 90 115.5 89.877 116.231 89.5957C119.306 88.4355 120.806 85.166 119.569 82.2832ZM113.156 45.4043L109.687 31.3066C108.825 27.791 106.2 24.8379 102.656 23.4141C99.1874 22.0078 95.3436 22.2363 92.1374 23.9941C87.8811 26.3496 84.6936 30.0586 83.1186 34.4355L80.9999 40.3945L77.9999 42.1875V25.3125C77.9999 23.7656 76.6499 22.5 74.9999 22.5H44.9999C43.3499 22.5 41.9999 23.7656 41.9999 25.3125V42.1875L38.9811 40.3945L36.8624 34.4355C35.3061 30.041 32.0999 26.3496 27.8436 23.9941C24.6186 22.2363 20.7936 22.0078 17.3249 23.4141C13.7811 24.8379 11.1561 27.791 10.2936 31.3066L6.84363 45.4043C5.98113 48.9199 6.97488 52.6465 9.54363 55.3711L22.1436 68.7129L24.0374 84.9902C24.3749 87.8555 26.9624 90 29.9999 90C30.2249 90 30.4311 89.9824 30.6561 89.9648C33.9561 89.6309 36.3186 86.8535 35.9624 83.7598L34.0686 67.4473C33.7874 65.1621 32.7749 63.0352 31.1436 61.2949L23.0249 52.6816L26.3249 40.3242L27.5999 43.9102C28.3686 46.1074 29.8311 48.0234 32.1936 49.6406L41.7749 55.3535C42.6374 55.8633 44.0436 56.1621 44.9999 56.2324H74.9999C75.9561 56.1621 77.3624 55.8633 78.2249 55.3535L87.8061 49.6406C90.1686 48.0234 91.6311 46.125 92.3999 43.9102L93.6749 40.3242L96.9749 52.6816L88.8561 61.2949C87.2249 63.0352 86.2124 65.1621 85.9311 67.4473L84.0374 83.7598C83.6811 86.8535 86.0624 89.6309 89.3436 89.9648C89.5686 89.9824 89.7749 90 89.9999 90C93.0186 90 95.6249 87.873 95.9624 84.9902L97.8561 68.7129L110.456 55.3711C113.006 52.6465 114.019 48.9199 113.156 45.4043ZM8.68113 62.9473L0.431128 82.2832C-0.806372 85.166 0.693629 88.4355 3.76863 89.5957C6.91863 90.7559 10.3499 89.2969 11.5686 86.4668L16.7624 74.3027L16.3874 71.1035L8.68113 62.9473Z" fill="white"/>
</g>
<defs>
<clipPath id="clip0_429_164">
<rect width="120" height="90" fill="white"/>
</clipPath>
</defs>
</svg>
