<svg width="26" height="26" viewBox="0 0 26 26" fill="none" xmlns="http://www.w3.org/2000/svg">
<path d="M12.2177 2.7688C17.3262 2.7688 21.4721 6.91475 21.4721 12.0232C21.4721 17.1316 17.3262 21.2775 12.2177 21.2775C7.10933 21.2775 2.96338 17.1316 2.96338 12.0232C2.96338 6.91475 7.10933 2.7688 12.2177 2.7688ZM12.2177 19.221C16.194 19.221 19.4156 15.9995 19.4156 12.0232C19.4156 8.04584 16.194 4.82532 12.2177 4.82532C8.24042 4.82532 5.0199 8.04584 5.0199 12.0232C5.0199 15.9995 8.24042 19.221 12.2177 19.221ZM20.2156 20.021C20.6171 19.6195 21.2681 19.6194 21.6697 20.0209L23.1239 21.4746C23.5257 21.8763 23.5258 22.5277 23.124 22.9294C22.7222 23.3312 22.0708 23.3311 21.6691 22.9293L20.2154 21.4751C19.814 21.0735 19.814 20.4225 20.2156 20.021Z" fill="black"/>
</svg>
