<svg width="86" height="86" viewBox="0 0 86 86" fill="none" xmlns="http://www.w3.org/2000/svg">
<g id="Frame">
<path id="Vector" d="M80.4542 6.88993C81.5038 7.93948 81.5038 9.6411 80.4542 10.6906L57.8326 33.3122C57.3073 32.6653 56.7433 32.0391 56.1409 31.4368C55.4587 30.7544 54.7456 30.1212 54.0063 29.5374L76.6537 6.88993C77.7033 5.8404 79.4047 5.8404 80.4542 6.88993Z" fill="white"/>
<path id="Vector_2" d="M53.8495 33.4948C45.8031 25.4484 32.7573 25.4484 24.7109 33.4948L23.8364 34.3692L52.9751 63.508L53.8495 62.6334C61.8958 54.587 61.8958 41.5411 53.8495 33.4948Z" fill="white"/>
<path id="Vector_3" d="M6.75045 46.4614L19.6965 37.8306L49.5137 67.6478L40.8828 80.5937C40.4364 81.2638 39.7129 81.6981 38.9117 81.7773C38.1104 81.8568 37.3156 81.5727 36.7466 81.0033L6.34088 50.5976C5.77156 50.0286 5.48747 49.2338 5.5668 48.4326C5.64614 47.6313 6.08055 46.9079 6.75045 46.4614Z" fill="white"/>
</g>
</svg>
