<svg width="736" height="736" viewBox="0 0 736 736" fill="none" xmlns="http://www.w3.org/2000/svg">
<g clip-path="url(#clip0_524_2)">
<path fill-rule="evenodd" clip-rule="evenodd" d="M368 736C465.6 736 559.202 697.229 628.215 628.215C697.229 559.202 736 465.6 736 368C736 270.4 697.229 176.798 628.215 107.785C559.202 38.7713 465.6 0 368 0C270.4 0 176.798 38.7713 107.785 107.785C38.7713 176.798 0 270.4 0 368C0 465.6 38.7713 559.202 107.785 628.215C176.798 697.229 270.4 736 368 736ZM541.88 288.88C547.974 282.34 551.292 273.69 551.134 264.752C550.976 255.814 547.356 247.286 541.035 240.965C534.714 234.644 526.186 231.024 517.248 230.866C508.31 230.708 499.66 234.026 493.12 240.12L310.5 422.74L242.88 355.12C236.34 349.026 227.69 345.708 218.752 345.866C209.814 346.024 201.286 349.644 194.965 355.965C188.644 362.286 185.024 370.814 184.866 379.752C184.708 388.69 188.026 397.34 194.12 403.88L286.12 495.88C292.589 502.341 301.357 505.97 310.5 505.97C319.643 505.97 328.411 502.341 334.88 495.88L541.88 288.88Z" fill="#4BFF67"/>
</g>
<defs>
<clipPath id="clip0_524_2">
<rect width="736" height="736" fill="white"/>
</clipPath>
</defs>
</svg>
