<svg width="27" height="27" viewBox="0 0 27 27" fill="none" xmlns="http://www.w3.org/2000/svg">
<g id="Frame" clip-path="url(#clip0_74_153)">
<path id="Vector" d="M21.6052 10.488C21.2774 6.08305 17.5935 2.62201 13.1099 2.62201C8.40339 2.62201 4.58838 6.43702 4.58838 11.1435C4.58838 16.8332 13.1099 23.598 13.1099 23.598C13.1099 23.598 14.788 22.2739 16.6496 20.2943C16.7807 20.3074 16.9118 20.3205 17.0429 20.3205C18.485 20.3205 19.6649 19.1406 19.6649 17.6985C19.6649 16.2564 18.485 15.0765 17.0429 15.0765C15.6008 15.0765 14.4209 16.2564 14.4209 17.6985C14.4209 18.2753 14.6044 18.8129 14.9191 19.2455C14.2767 19.9141 13.6474 20.5172 13.1099 21.0153C10.619 18.7473 6.55488 14.3817 6.55488 11.1435C6.55488 7.52515 9.49152 4.58851 13.1099 4.58851C16.5054 4.58851 19.2978 7.18429 19.6387 10.488H16.0596L20.6481 15.0765L25.2366 10.488H21.6052Z" fill="white"/>
</g>
<defs>
<clipPath id="clip0_74_153">
<rect width="26.22" height="26.22" fill="white"/>
</clipPath>
</defs>
</svg>
