<svg width="28" height="28" viewBox="0 0 28 28" fill="none" xmlns="http://www.w3.org/2000/svg">
<path d="M18.6668 18.6667L14.0002 14L9.3335 18.6667" stroke="white" stroke-width="2" stroke-linecap="round" stroke-linejoin="round"/>
<path d="M14 14V24.5" stroke="white" stroke-width="2" stroke-linecap="round" stroke-linejoin="round"/>
<path d="M23.7885 21.4549C24.9264 20.8346 25.8253 19.853 26.3434 18.665C26.8614 17.477 26.9691 16.1504 26.6494 14.8944C26.3298 13.6384 25.6009 12.5247 24.578 11.729C23.555 10.9332 22.2962 10.5008 21.0002 10.4999H19.5302C19.1771 9.13406 18.5189 7.866 17.6051 6.7911C16.6914 5.7162 15.5459 4.86243 14.2546 4.29398C12.9634 3.72553 11.5602 3.45719 10.1503 3.50914C8.7405 3.56108 7.36078 3.93196 6.1149 4.59388C4.86903 5.25581 3.78943 6.19156 2.95726 7.33079C2.12509 8.47001 1.562 9.78307 1.31034 11.1712C1.05868 12.5594 1.12499 13.9866 1.50428 15.3454C1.88357 16.7043 2.56598 17.9594 3.5002 19.0166" stroke="white" stroke-width="2" stroke-linecap="round" stroke-linejoin="round"/>
<path d="M18.6668 18.6667L14.0002 14L9.3335 18.6667" stroke="white" stroke-width="2" stroke-linecap="round" stroke-linejoin="round"/>
</svg>
